<svg width="231" height="21" viewBox="0 0 231 21" fill="none" xmlns="http://www.w3.org/2000/svg"><path fill-rule="evenodd" clip-rule="evenodd" d="M20.3755 5.69672C20.1861 5.38103 19.5713 5.63782 18.87 6.10899C16.3943 7.74395 13.4675 5.85456 12.3921 4.85568C11.4617 3.98402 10.6973 5.55537 10.8048 6.17967C10.8688 6.55921 11.2497 6.51005 11.7177 6.44966C12.3273 6.37098 13.0848 6.27324 13.4815 7.0796C14.0636 8.28579 12.841 9.3789 11.5973 9.22813C10.7791 9.12918 8.91362 7.95833 9.98663 5.03001C10.9895 2.29016 14.5709 1.71298 16.4411 3.12649C16.6801 3.30555 16.9043 3.47936 17.1164 3.64382C17.8673 4.22585 18.4673 4.69089 19.036 4.85804C19.3479 4.94972 19.5978 4.95092 19.8465 4.95211C20.1792 4.95371 20.5096 4.95529 20.9833 5.17372C21.362 5.34805 21.4695 5.96764 20.6957 6.61078C18.9424 8.06905 17.7385 10.7736 17.9723 12.9716C18.2014 15.1272 19.8822 17.443 23.0732 17.3652C24.7382 17.2805 26.3052 16.5466 27.4429 15.3187C28.5807 14.0907 29.2 12.4651 29.17 10.7853C29.17 6.36342 27.6505 3.95339 27.0917 3.24664C26.8346 2.9074 26.5587 2.6883 26.367 2.8485C26.0935 3.04028 25.7786 3.16382 25.4483 3.20894H25.4343H25.28C24.8584 3.20894 24.4541 3.04017 24.156 2.73974C23.8578 2.43931 23.6904 2.03184 23.6904 1.60697C23.6904 1.1821 23.8578 0.774632 24.156 0.474203C24.4541 0.173775 24.8584 0.00499595 25.28 0.00499595C25.5656 -0.00539803 25.8491 0.0587088 26.1029 0.191108C26.2983 0.303321 26.477 0.442923 26.6335 0.605736C26.8573 0.871572 27.0628 1.15258 27.2484 1.44677L27.2538 1.45537C28.2124 2.97402 30.2874 6.26151 30.2874 10.922C30.2874 16.9482 26.8533 21.0003 21.743 21.0003C20.3626 21.0002 19.0098 20.6098 17.8386 19.8735C16.6674 19.1372 15.7246 18.0845 15.1175 16.8351C14.5104 15.5857 14.2633 14.1897 14.4043 12.8058C14.5453 11.4219 15.0687 10.1057 15.9151 9.00668C16.939 7.60024 18.6222 6.71915 19.6554 6.22207C19.6841 6.20822 19.7259 6.19035 19.7752 6.16924C20.028 6.06113 20.4791 5.8682 20.3755 5.69672ZM30.3343 5.52711L35.4072 2.2784V19.264L36.361 20.2723H30.3343L31.2928 19.264V6.12785L30.3343 5.52711ZM5.07052 5.20909L6.02664 4.3233H0L0.956128 5.20909V19.2641L0 20.2724H6.02664L5.07052 19.2641V5.20909ZM9.61271 8.47662C9.60163 8.45462 9.58914 8.43337 9.57531 8.41301L5.53806 12.4179C5.53806 12.4179 5.87703 13.3603 6.27678 14.2249C6.85002 15.4624 7.53307 16.6451 8.31761 17.7586C10.0919 20.2464 13.0959 20.6045 14.3817 20.6045C15.2814 20.5739 16.1723 20.4152 17.028 20.1333C17.028 20.1333 14.8539 18.8753 13.3811 17.2922C12.1024 15.9164 10.0896 12.5452 9.14751 10.6393L10.4309 9.32237C10.1003 9.10387 9.82106 8.81522 9.61271 8.47662ZM50.3732 6.12785V2.2784L45.3027 5.52711L46.2589 6.12785V19.264L45.4664 19.853C44.7276 19.4007 43.2011 18.3853 42.1211 17.1084C41.0487 15.7838 40.0884 14.3708 39.2504 12.8844L40.9663 11.2919L43.9796 8.50254H37.9646L40.3865 10.7453L35.7882 15.0023C36.2134 15.8513 36.6816 16.6777 37.1908 17.4783C38.9652 20.2252 41.9691 20.6304 43.2572 20.6304C43.9847 20.6117 44.7064 20.4952 45.4033 20.2841H51.3294L50.3732 19.2758V6.12785ZM54.2189 12.8844C55.0569 14.3708 56.0172 15.7838 57.0896 17.1084C58.5624 18.8518 60.8697 20.1003 60.8697 20.1003C60.0194 20.4054 59.1277 20.5771 58.2257 20.6092C56.9376 20.6092 53.9337 20.2158 52.1593 17.4783C51.6492 16.6782 51.1811 15.8517 50.7567 15.0023L55.3573 10.7453L52.9331 8.50252H58.9598L55.9488 11.2918L54.2189 12.8844ZM72.9767 18.8471C72.9767 18.972 72.9274 19.0919 72.8397 19.1802C72.752 19.2686 72.6331 19.3182 72.5091 19.3182C72.4377 19.3152 72.3675 19.2979 72.3028 19.2673C72.238 19.2366 72.18 19.1932 72.1321 19.1397C72.0842 19.0862 72.0474 19.0235 72.0239 18.9555C72.0003 18.8875 71.9904 18.8153 71.9948 18.7434V13.4475L71.9951 13.3106C71.9994 11.6272 72.0083 8.14918 66.8051 8.14918C61.4564 8.14918 60.8977 12.2837 60.8977 12.2837H65.7017L63.579 10.3189C63.918 9.56975 64.7152 8.81588 66.1505 8.81588C67.7074 8.81588 67.8804 9.92077 67.8804 10.2694V13.0917C67.8804 13.0917 63.8385 13.3956 62.2418 14.0341C60.6452 14.6725 60.0654 16.2745 60.0654 17.5938C60.0654 18.913 61.4961 20.6092 63.7637 20.6092C66.0313 20.6092 67.9038 18.7764 67.9038 18.7764C67.9038 18.7764 68.3713 20.6092 70.3187 20.6092C73.4091 20.6304 72.9767 18.8471 72.9767 18.8471ZM67.8711 17.3959C67.8711 17.3959 65.4772 18.1497 65.4772 15.9093C65.4772 13.6689 67.8711 13.5181 67.8711 13.5181V17.3959Z" fill="white"></path><g clip-path="url(#clip0_5133_25403)"><path d="M95.2384 15.2389L95.4537 20.7521H93.2848V10.8184H95.6689L97.457 16.3482L97.2417 10.8184H99.4437V20.7521H97.1093L95.2384 15.2389Z" fill="white"></path><path d="M106.828 17.6226C106.906 18.5306 106.653 19.4362 106.116 20.1723C105.801 20.4776 105.422 20.71 105.008 20.8531C104.593 20.9961 104.152 21.0463 103.715 21.0001C103.271 21.0426 102.824 20.9909 102.402 20.8482C101.979 20.7055 101.592 20.4752 101.265 20.1723C100.73 19.4349 100.478 18.5303 100.553 17.6226V13.5995C100.526 13.1986 100.585 12.7966 100.725 12.4199C100.865 12.0433 101.082 11.7005 101.364 11.414C102.02 10.8663 102.863 10.5934 103.715 10.6524C104.557 10.602 105.386 10.8744 106.033 11.414C106.309 11.7037 106.523 12.0474 106.659 12.4235C106.796 12.7997 106.853 13.2001 106.828 13.5995V17.6226ZM104.51 13.765C104.519 13.5941 104.519 13.4227 104.51 13.2518C104.483 13.1161 104.445 12.9831 104.394 12.8544C104.349 12.7288 104.261 12.6232 104.146 12.5564C104.019 12.4696 103.869 12.4231 103.715 12.4231C103.562 12.4231 103.411 12.4696 103.285 12.5564C103.172 12.6305 103.08 12.7333 103.02 12.8544C102.969 12.9876 102.936 13.1267 102.92 13.2683C102.903 13.4334 102.903 13.5999 102.92 13.765V17.8213C102.904 17.9809 102.904 18.1419 102.92 18.3015C102.932 18.4563 102.971 18.6078 103.036 18.7485C103.08 18.8881 103.167 19.01 103.285 19.0962C103.416 19.1859 103.573 19.2323 103.732 19.2286C103.885 19.2299 104.036 19.1837 104.162 19.0962C104.277 19.0172 104.359 18.8996 104.394 18.765C104.442 18.6241 104.48 18.4804 104.51 18.3346C104.519 18.1691 104.519 18.0033 104.51 17.8379V13.765Z" fill="white"></path><path d="M113.45 20.7681H111.132V10.8343H114.444C115.212 10.7717 115.975 11.0024 116.579 11.48C116.834 11.7606 117.027 12.0909 117.146 12.45C117.266 12.8091 117.31 13.1892 117.275 13.5661C117.293 14.0421 117.208 14.5165 117.026 14.9568C116.814 15.3515 116.468 15.657 116.05 15.8177C116.36 15.8677 116.645 16.0191 116.861 16.2482C117.078 16.4762 117.203 16.7775 117.209 17.0926C117.209 17.2581 117.209 17.6224 117.209 18.2019C117.209 18.7813 117.209 19.1124 117.209 19.4436C117.192 19.6972 117.192 19.9516 117.209 20.2052C117.264 20.3341 117.343 20.452 117.44 20.5528V20.6853H115.255C115.187 20.5041 115.142 20.3149 115.123 20.1224C115.123 19.8575 115.123 19.5429 115.123 19.1621V18.3343C115.132 18.1744 115.132 18.0141 115.123 17.8542C115.106 17.5909 115.026 17.3355 114.891 17.1091C114.829 17.0181 114.744 16.9444 114.646 16.8952C114.547 16.8459 114.438 16.8227 114.328 16.8277H113.45V20.7681ZM113.45 15.023H114.245C114.375 15.0351 114.506 15.0086 114.62 14.9467C114.735 14.8849 114.829 14.7905 114.891 14.6754C115.023 14.4247 115.097 14.1473 115.106 13.8641C115.106 13.3509 114.99 13.0363 114.775 12.8873C114.371 12.7036 113.925 12.6294 113.483 12.672L113.45 15.023Z" fill="white"></path><path d="M118.583 20.7678V10.834H123.881V12.8207H120.901V14.6254H123.798V16.6784H120.901V18.8141H124.046V20.7843L118.583 20.7678Z" fill="white"></path><path d="M124.676 20.7678L126.828 10.834H129.626L131.762 20.7678H129.427L129.096 18.8472H127.275L127.01 20.7678H124.676ZM128.235 12.6883L127.556 17.1088H128.897L128.235 12.6883Z" fill="white"></path><path d="M134.228 17.4563V18.1516C134.213 18.4253 134.282 18.6972 134.427 18.9298C134.515 19.0349 134.628 19.1169 134.755 19.1688C134.881 19.2208 135.019 19.241 135.156 19.2278C135.27 19.2323 135.383 19.2072 135.485 19.155C135.586 19.1028 135.672 19.0252 135.735 18.9298C135.874 18.7251 135.943 18.4814 135.934 18.2344C135.945 17.9433 135.844 17.659 135.652 17.4397C135.402 17.2029 135.124 16.9972 134.824 16.8271L134.642 16.6781C134.228 16.4298 133.881 16.2145 133.599 16.0159C133.34 15.8325 133.101 15.6216 132.887 15.3867C132.675 15.1235 132.507 14.827 132.391 14.5092C132.267 14.1526 132.206 13.7774 132.209 13.4C132.183 13.017 132.24 12.6331 132.374 12.2735C132.508 11.9139 132.717 11.5868 132.987 11.3139C133.583 10.8155 134.346 10.5612 135.122 10.6019C135.523 10.5754 135.925 10.6339 136.302 10.7737C136.679 10.9135 137.021 11.1315 137.308 11.4132C137.569 11.6983 137.771 12.0324 137.902 12.3963C138.032 12.7601 138.089 13.1463 138.07 13.5324V13.7973H135.934V13.6814C135.934 13.4827 135.934 13.3337 135.934 13.2013C135.918 13.0704 135.885 12.9422 135.834 12.8205C135.799 12.6949 135.723 12.5844 135.619 12.5059C135.477 12.4023 135.306 12.3465 135.131 12.3465C134.955 12.3465 134.784 12.4023 134.642 12.5059C134.507 12.6309 134.424 12.8025 134.411 12.9861V13.0688C134.411 13.0688 134.411 13.0688 134.411 13.1516C134.404 13.3547 134.469 13.5536 134.593 13.7145C134.742 13.9026 134.921 14.0648 135.122 14.1947L135.95 14.6914C136.428 14.9471 136.877 15.2523 137.291 15.602C137.576 15.8632 137.797 16.186 137.937 16.5457C138.084 16.9999 138.151 17.4759 138.136 17.9529C138.181 18.3524 138.135 18.7569 138.002 19.1362C137.869 19.5155 137.652 19.8597 137.367 20.1432C137.082 20.4266 136.736 20.642 136.356 20.773C135.976 20.9041 135.571 20.9475 135.172 20.9C134.717 20.9088 134.264 20.8417 133.831 20.7013C133.475 20.591 133.147 20.4046 132.871 20.1549C132.631 19.9352 132.444 19.6633 132.324 19.3602C132.211 19.0587 132.155 18.7387 132.159 18.4165V17.3569L134.228 17.4563Z" fill="white"></path><path d="M145.272 17.6231C145.341 18.5302 145.089 19.4328 144.56 20.1728C144.241 20.4785 143.86 20.7109 143.443 20.8539C143.025 20.9969 142.581 21.047 142.142 21.0006C141.701 21.0439 141.256 20.9924 140.836 20.8497C140.416 20.7069 140.032 20.4761 139.709 20.1728C139.168 19.4376 138.91 18.5328 138.98 17.6231V13.5999C138.957 13.1979 139.018 12.7955 139.161 12.4189C139.304 12.0424 139.524 11.7001 139.808 11.4145C140.46 10.8708 141.295 10.5982 142.142 10.6529C142.985 10.592 143.818 10.8656 144.46 11.4145C144.739 11.7033 144.954 12.0465 145.094 12.4225C145.234 12.7986 145.294 13.1994 145.272 13.5999V17.6231ZM142.954 13.7655C142.964 13.5945 142.964 13.4232 142.954 13.2522C142.94 13.1156 142.907 12.9817 142.854 12.8549C142.805 12.7319 142.718 12.6276 142.606 12.5569C142.474 12.4671 142.318 12.4207 142.159 12.4244C142.005 12.4231 141.855 12.4694 141.728 12.5569C141.616 12.6276 141.529 12.7319 141.48 12.8549C141.432 12.9899 141.393 13.1282 141.364 13.2688C141.355 13.4342 141.355 13.6 141.364 13.7655V17.8218C141.355 17.9817 141.355 18.142 141.364 18.3019C141.391 18.4537 141.43 18.6032 141.48 18.7489C141.535 18.8869 141.627 19.0071 141.745 19.0966C141.836 19.1624 141.94 19.2064 142.051 19.2253C142.161 19.2441 142.274 19.2373 142.382 19.2052C142.489 19.1732 142.587 19.1169 142.669 19.0406C142.751 18.9643 142.815 18.8702 142.854 18.7655C142.892 18.6249 142.915 18.4805 142.921 18.335C142.93 18.1696 142.93 18.0038 142.921 17.8383L142.954 13.7655Z" fill="white"></path><path d="M148.351 15.2389L148.566 20.7521H146.348V10.8184H148.732L150.52 16.3482L150.305 10.8184H152.507V20.7521H150.156L148.351 15.2389Z" fill="white"></path><path d="M157.043 20.7678V10.834H162.49V12.8207H159.344V14.5591H162.242V16.6784H159.344V20.8505L157.043 20.7678Z" fill="white"></path><path d="M169.742 17.6216C169.82 18.5296 169.567 19.4352 169.03 20.1713C168.716 20.4785 168.338 20.7122 167.923 20.8554C167.508 20.9985 167.066 21.0476 166.629 20.9991C166.188 21.0424 165.743 20.991 165.323 20.8482C164.903 20.7054 164.519 20.4746 164.195 20.1713C163.655 19.4361 163.396 18.5313 163.467 17.6216V13.5984C163.444 13.1964 163.505 12.794 163.648 12.4175C163.79 12.0409 164.011 11.6986 164.295 11.413C164.947 10.8693 165.782 10.5967 166.629 10.6514C167.471 10.601 168.3 10.8734 168.947 11.413C169.223 11.7026 169.437 12.0464 169.573 12.4225C169.71 12.7986 169.767 13.199 169.742 13.5984V17.6216ZM167.424 13.764C167.433 13.593 167.433 13.4217 167.424 13.2508C167.413 13.1117 167.374 12.9764 167.308 12.8534C167.264 12.7321 167.183 12.6279 167.076 12.5554C166.945 12.4656 166.788 12.4193 166.629 12.4229C166.475 12.4181 166.324 12.4647 166.199 12.5554C166.087 12.6261 166 12.7304 165.95 12.8534C165.894 12.9858 165.855 13.1249 165.835 13.2673C165.825 13.4327 165.825 13.5986 165.835 13.764V17.8203C165.826 17.9802 165.826 18.1405 165.835 18.3004C165.853 18.4539 165.892 18.6041 165.95 18.7474C166.005 18.8854 166.097 19.0057 166.215 19.0951C166.34 19.1858 166.492 19.2324 166.646 19.2276C166.799 19.2289 166.95 19.1826 167.076 19.0951C167.19 19.0118 167.276 18.8965 167.325 18.764C167.375 18.6194 167.408 18.4694 167.424 18.317C167.433 18.1515 167.433 17.9857 167.424 17.8203V13.764Z" fill="white"></path><path d="M173.169 20.7688H170.851V10.8351H174.162C174.936 10.7698 175.705 11.0006 176.315 11.4808C176.569 11.7613 176.762 12.0916 176.881 12.4507C177.001 12.8099 177.045 13.1899 177.01 13.5668C177.03 14.0446 176.939 14.5205 176.745 14.9576C176.535 15.3475 176.195 15.652 175.785 15.8185C176.093 15.8761 176.376 16.0263 176.596 16.249C176.802 16.4827 176.92 16.7817 176.927 17.0933C176.927 17.2589 176.927 17.6231 176.927 18.2026C176.927 18.7821 176.927 19.1132 176.927 19.4443C176.938 19.6997 176.966 19.9541 177.01 20.2059C177.06 20.3338 177.133 20.4516 177.225 20.5536V20.6861H174.907C174.83 20.5076 174.786 20.3171 174.775 20.1231C174.775 19.8582 174.775 19.5437 174.775 19.1629V18.3351C174.775 18.1529 174.775 18.0039 174.775 17.8549C174.748 17.5936 174.669 17.3403 174.543 17.1099C174.479 17.021 174.394 16.949 174.296 16.9C174.198 16.851 174.09 16.8264 173.98 16.8284H173.219L173.169 20.7688ZM173.169 15.09H173.947C174.077 15.1021 174.207 15.0756 174.322 15.0137C174.437 14.9519 174.531 14.8575 174.593 14.7423C174.739 14.4738 174.807 14.1701 174.791 13.8649C174.791 13.3516 174.675 13.037 174.46 12.888C174.055 12.708 173.611 12.6339 173.169 12.6728V15.09Z" fill="white"></path><path d="M181.546 20.7678V10.834H187.01V12.8207H183.864V14.5591H186.745V16.6784H183.864V20.8505L181.546 20.7678Z" fill="white"></path><path d="M187.954 20.7678V10.834H190.271V18.7479H193.103V20.7181L187.954 20.7678Z" fill="white"></path><path d="M200.139 17.6216C200.217 18.5296 199.964 19.4352 199.427 20.1713C199.113 20.4785 198.735 20.7122 198.32 20.8554C197.905 20.9985 197.463 21.0476 197.026 20.9991C196.585 21.0424 196.14 20.991 195.72 20.8482C195.3 20.7054 194.916 20.4746 194.593 20.1713C194.045 19.4395 193.786 18.5321 193.864 17.6216V13.5984C193.837 13.196 193.896 12.7924 194.039 12.4152C194.182 12.0379 194.405 11.6961 194.692 11.413C195.344 10.8693 196.179 10.5967 197.026 10.6514C197.868 10.601 198.697 10.8734 199.344 11.413C199.621 11.7026 199.834 12.0464 199.971 12.4225C200.107 12.7986 200.165 13.199 200.139 13.5984V17.6216ZM197.887 13.764C197.897 13.593 197.897 13.4217 197.887 13.2508C197.869 13.1133 197.83 12.9793 197.772 12.8534C197.728 12.7321 197.646 12.6279 197.54 12.5554C197.408 12.4656 197.252 12.4193 197.093 12.4229C196.938 12.4181 196.787 12.4647 196.662 12.5554C196.55 12.6261 196.463 12.7304 196.414 12.8534C196.351 12.9832 196.311 13.1235 196.298 13.2673C196.28 13.4324 196.28 13.5989 196.298 13.764V17.8203C196.256 17.9883 196.234 18.1605 196.232 18.3335C196.243 18.4884 196.282 18.6399 196.348 18.7806C196.396 18.9174 196.482 19.0378 196.596 19.1282C196.728 19.218 196.884 19.2644 197.043 19.2607C197.197 19.262 197.347 19.2157 197.474 19.1282C197.587 19.0449 197.674 18.9297 197.722 18.7971C197.796 18.6502 197.852 18.4944 197.887 18.3335C197.896 18.1681 197.896 18.0023 197.887 17.8369V13.764Z" fill="white"></path><path d="M207.821 17.8219L208.55 10.8848H210.752L209.096 20.8185H206.513L205.801 13.8649L205.023 20.8185H202.44L200.785 10.8848H203.02L203.715 17.8219L204.659 10.9013H206.894L207.821 17.8219Z" fill="white"></path><path d="M211.497 20.7678V10.834H216.811V12.8207H213.815V14.6254H216.712V16.6784H213.815V18.8141H216.977V20.7843L211.497 20.7678Z" fill="white"></path><path d="M220.354 20.7688H218.036V10.8351H221.348C222.121 10.7698 222.89 11.0006 223.5 11.4808C223.754 11.7613 223.947 12.0916 224.067 12.4507C224.186 12.8099 224.23 13.1899 224.195 13.5668C224.215 14.0446 224.124 14.5205 223.93 14.9576C223.725 15.3511 223.384 15.657 222.97 15.8185C223.279 15.873 223.563 16.0236 223.781 16.249C223.988 16.4827 224.105 16.7817 224.113 17.0933C224.113 17.2589 224.113 17.6231 224.113 18.2026C224.113 18.7821 224.113 19.1132 224.113 19.4443C224.124 19.6997 224.151 19.9541 224.195 20.2059C224.245 20.3382 224.324 20.4572 224.427 20.5536V20.6861H221.894C221.817 20.5076 221.772 20.3171 221.762 20.1231C221.762 19.8582 221.762 19.5437 221.762 19.1629V18.3351C221.762 18.1529 221.762 18.0039 221.762 17.8549C221.735 17.5936 221.656 17.3403 221.53 17.1099C221.466 17.021 221.381 16.949 221.283 16.9C221.185 16.851 221.076 16.8264 220.967 16.8284H220.205L220.354 20.7688ZM220.354 15.09H221.149C221.279 15.1 221.408 15.0725 221.523 15.0109C221.637 14.9493 221.732 14.856 221.795 14.7423C221.926 14.4689 221.988 14.1678 221.977 13.8649C221.977 13.3516 221.861 13.037 221.646 12.888C221.241 12.7059 220.796 12.6317 220.354 12.6728V15.09Z" fill="white"></path><path d="M227.159 17.4574V18.1527C227.143 18.4264 227.212 18.6983 227.358 18.9309C227.444 19.0383 227.556 19.122 227.683 19.1741C227.811 19.2263 227.949 19.2451 228.086 19.2289C228.2 19.2334 228.313 19.2083 228.415 19.1561C228.517 19.1039 228.603 19.0263 228.666 18.9309C228.804 18.7262 228.874 18.4826 228.864 18.2355C228.875 17.9444 228.774 17.6601 228.583 17.4408C228.333 17.204 228.055 16.9983 227.755 16.8282L227.573 16.7289C227.159 16.4805 226.811 16.2653 226.53 16.0666C226.267 15.8876 226.028 15.6762 225.818 15.4375C225.599 15.1784 225.431 14.8808 225.321 14.56C225.198 14.2033 225.136 13.8282 225.139 13.4507C225.114 13.0678 225.17 12.6839 225.304 12.3243C225.439 11.9647 225.647 11.6376 225.917 11.3647C226.514 10.8663 227.277 10.612 228.053 10.6527C228.454 10.6261 228.856 10.6847 229.232 10.8245C229.609 10.9643 229.952 11.1822 230.238 11.464C230.5 11.749 230.701 12.0832 230.832 12.447C230.963 12.8109 231.02 13.1971 231 13.5832V13.8481H228.881V13.7322C228.881 13.5335 228.881 13.3845 228.881 13.2521C228.865 13.1212 228.832 12.993 228.781 12.8713C228.74 12.7488 228.665 12.64 228.566 12.5567C228.442 12.4785 228.299 12.433 228.152 12.4243C227.949 12.4151 227.749 12.4798 227.589 12.6064C227.52 12.666 227.463 12.7394 227.423 12.8221C227.383 12.9047 227.361 12.9948 227.358 13.0865V13.1693C227.35 13.1963 227.35 13.225 227.358 13.2521C227.351 13.4551 227.416 13.6541 227.54 13.815C227.689 14.003 227.868 14.1652 228.069 14.2951L228.897 14.7918C229.372 15.0517 229.822 15.3566 230.238 15.7024C230.523 15.9636 230.744 16.2864 230.884 16.6461C231.031 17.1003 231.098 17.5764 231.083 18.0534C231.128 18.4528 231.082 18.8573 230.949 19.2366C230.816 19.6159 230.599 19.9602 230.314 20.2436C230.029 20.5271 229.683 20.7424 229.303 20.8735C228.923 21.0045 228.518 21.0479 228.119 21.0004C227.659 21.0081 227.2 20.941 226.762 20.8017C226.412 20.6875 226.091 20.5014 225.818 20.2554C225.578 20.0356 225.391 19.7638 225.271 19.4607C225.152 19.1603 225.09 18.8402 225.089 18.517V17.4574H227.159Z" fill="white"></path><path d="M81.6954 10.8848H81V20.7523H81.6954V10.8848Z" fill="white"></path></g><defs><clipPath id="clip0_5133_25403"><rect width="150" height="10.3477" fill="white" transform="translate(81 10.6523)"></rect></clipPath></defs></svg>