<svg width="50" height="58" viewBox="0 0 50 58" fill="none" xmlns="http://www.w3.org/2000/svg"><g clip-path="url(#clip0_10313_106122)"><path d="M6.38599 21.8496C6.38599 21.8496 7.75651 31.7139 14.5606 39.8716" stroke="#313131" stroke-linecap="round" stroke-linejoin="round"></path><path d="M23.6877 41.2023C22.599 40.132 20.2176 38.4156 16.2907 38.8109C13.4816 39.0906 13.8121 45.5897 14.9494 46.3611C16.0186 47.0746 19.5858 47.5664 22.7934 45.6572" fill="#FFFF00"></path><path d="M23.6877 41.2023C22.599 40.132 20.2176 38.4156 16.2907 38.8109C13.4816 39.0906 13.8121 45.5897 14.9494 46.3611C16.0186 47.0746 19.5858 47.5664 22.7934 45.6572" stroke="#313131" stroke-linecap="round" stroke-linejoin="round"></path><path d="M21.3646 46.3711C21.3646 46.3711 17.5932 48.2803 17.0684 52.7352" stroke="#313131" stroke-linecap="round" stroke-linejoin="round"></path><path d="M26.176 41.2023C27.2647 40.132 29.6461 38.4156 33.573 38.8109C36.3821 39.0906 36.0516 45.5897 34.9144 46.3611C33.8452 47.0746 30.2779 47.5664 27.0703 45.6572" fill="#FFFF00"></path><path d="M26.176 41.2023C27.2647 40.132 29.6461 38.4156 33.573 38.8109C36.3821 39.0906 36.0516 45.5897 34.9144 46.3611C33.8452 47.0746 30.2779 47.5664 27.0703 45.6572" stroke="#313131" stroke-linecap="round" stroke-linejoin="round"></path><path d="M28.4993 46.3711C28.4993 46.3711 32.2707 48.2803 32.7955 52.7352" stroke="#313131" stroke-linecap="round" stroke-linejoin="round"></path><path d="M24.9319 40.9521C21.1411 40.9521 21.3452 46.6509 24.9319 46.6509C28.5186 46.6509 28.7227 40.9521 24.9319 40.9521Z" fill="#FFFF00" stroke="#313131" stroke-linecap="round" stroke-linejoin="round"></path><path d="M22.5699 45.7637L19.4886 55.358C19.3234 55.9076 19.6247 56.4862 20.1982 56.6983C21.1605 57.0648 22.8032 57.518 24.9416 57.518C27.08 57.518 28.7227 57.0648 29.685 56.6983C30.2488 56.4862 30.5501 55.9076 30.3946 55.358L27.3133 45.7637" stroke="#313131" stroke-linecap="round" stroke-linejoin="round"></path><path d="M49.3488 13.8954C49.0086 12.854 48.2115 12.0826 47.1521 11.7837C46.3356 11.5426 45.4608 11.6391 44.7123 12.0151C44.8484 11.1955 44.6637 10.3469 44.1874 9.64304C43.5654 8.74628 42.5836 8.22559 41.4755 8.22559C40.3674 8.22559 39.3857 8.74628 38.7636 9.64304C38.2776 10.3469 38.1027 11.1955 38.2388 12.0151C37.4903 11.6294 36.6252 11.5426 35.799 11.7837C34.7395 12.0923 33.9425 12.8637 33.6023 13.9051C33.2621 14.9465 33.4565 16.0361 34.1272 16.8942C34.6521 17.5692 35.4005 18.0031 36.2364 18.1285C35.6435 18.7167 35.2839 19.5074 35.2547 20.3559C35.2255 21.4455 35.7115 22.4387 36.6058 23.0848C37.1695 23.4898 37.8402 23.7115 38.5206 23.7115C38.8997 23.7115 39.2691 23.644 39.6287 23.5187C40.4355 23.2294 41.0867 22.6509 41.4658 21.9084C41.8449 22.6509 42.4961 23.2391 43.3029 23.5187C43.6626 23.644 44.0416 23.7115 44.411 23.7115C45.1011 23.7115 45.7621 23.4994 46.3258 23.0848C47.2201 22.4484 47.7061 21.4552 47.6769 20.3559C47.6575 19.5074 47.2979 18.7167 46.6952 18.1285C47.5214 18.0031 48.2893 17.5596 48.8045 16.8942C49.4751 16.0264 49.6695 14.9368 49.3293 13.9051L49.3488 13.8954Z" stroke="#313131" stroke-linecap="round" stroke-linejoin="round"></path><path d="M41.4852 18.8894C40.1147 18.8894 39.0066 17.7901 39.0066 16.4305C39.0066 15.0709 40.1147 13.9717 41.4852 13.9717C42.8557 13.9717 43.9638 15.0709 43.9638 16.4305C43.9638 17.7901 42.8557 18.8894 41.4852 18.8894Z" stroke="#313131" stroke-linecap="round" stroke-linejoin="round"></path><path d="M43.2932 6.08489C42.9433 5.05313 42.1366 4.28173 41.0771 3.98281C40.2509 3.75139 39.3858 3.84781 38.6373 4.24316C38.7637 3.42354 38.579 2.57499 38.093 1.87109C37.4612 0.974329 36.4698 0.472916 35.3714 0.482558C34.273 0.482558 33.2913 1.0129 32.6789 1.9193C32.2027 2.62321 32.0277 3.47175 32.1735 4.29137C31.425 3.91531 30.5502 3.82853 29.7338 4.07923C28.684 4.39744 27.8869 5.17849 27.5565 6.21024C27.226 7.25164 27.4204 8.34124 28.1008 9.19943C28.6354 9.87441 29.3838 10.2987 30.2198 10.4144" stroke="#313131" stroke-linecap="round" stroke-linejoin="round"></path><path d="M33.3496 9.99C32.6206 8.84254 32.9705 7.31901 34.1175 6.59582C35.2742 5.87263 36.8099 6.21976 37.5389 7.35758" stroke="#313131" stroke-linecap="round" stroke-linejoin="round"></path><path d="M24.232 10.9639C24.6305 10.4142 24.8444 9.7489 24.8444 9.05464C24.8444 7.96503 24.3195 6.98149 23.4155 6.37401C22.706 5.89188 21.8506 5.71831 21.0244 5.85331C21.4035 5.11083 21.5007 4.243 21.2577 3.43303C20.9466 2.38199 20.169 1.5913 19.1193 1.25381C18.0695 0.916319 16.9711 1.10917 16.106 1.77451C15.4256 2.29521 14.998 3.04733 14.8619 3.86694C14.269 3.27875 13.4719 2.92197 12.6165 2.89304C11.5182 2.86412 10.517 3.35589 9.87549 4.23336" stroke="#313131" stroke-linecap="round" stroke-linejoin="round"></path><path d="M14.5703 7.61787C15.3771 6.51862 16.9226 6.27756 18.0307 7.06825C19.1387 7.86858 19.3817 9.40175 18.5847 10.501" stroke="#313131" stroke-linecap="round" stroke-linejoin="round"></path><path d="M29.7433 13.9528C28.8491 13.3164 27.741 13.1621 26.7107 13.5381C25.9039 13.8274 25.2624 14.4156 24.8833 15.1581C24.5042 14.4156 23.853 13.8371 23.0365 13.5574C21.9964 13.2006 20.8981 13.3646 20.0136 14.0106C19.129 14.6567 18.643 15.6499 18.6819 16.7395C18.7111 17.588 19.0707 18.3787 19.6733 18.9573C18.8471 19.0922 18.089 19.5262 17.5738 20.2011C16.9031 21.069 16.7282 22.1586 17.0684 23.2C17.4183 24.2317 18.2153 25.0031 19.2748 25.3021C20.101 25.5335 20.9661 25.4467 21.7146 25.0514C21.5882 25.871 21.7729 26.7195 22.2589 27.4234C22.881 28.3202 23.8724 28.8312 24.9708 28.8216C25.6706 28.8216 26.3413 28.5998 26.8856 28.1948C27.187 27.973 27.4494 27.7031 27.6632 27.3849C28.1395 26.6809 28.3145 25.8324 28.1784 25.0128C28.9268 25.3888 29.8017 25.4756 30.6181 25.2346C30.9875 25.1285 31.3277 24.9549 31.629 24.7331C32.1831 24.3282 32.5816 23.7689 32.7954 23.1036C33.1259 22.0622 32.9315 20.9725 32.2608 20.1144C31.7359 19.449 30.9681 19.0151 30.1419 18.8994C30.7348 18.3112 31.0847 17.5012 31.1041 16.6623C31.1333 15.5727 30.6279 14.5795 29.7336 13.9431L29.7433 13.9528Z" stroke="#313131" stroke-linecap="round" stroke-linejoin="round"></path><path d="M26.3899 22.5927C25.2915 23.393 23.7363 23.1616 22.9198 22.072C22.113 20.9824 22.3463 19.4396 23.4447 18.6296C24.543 17.8293 26.0983 18.0607 26.9147 19.1503C27.7312 20.2399 27.4882 21.7827 26.3899 22.5927Z" stroke="#313131" stroke-linecap="round" stroke-linejoin="round"></path><path d="M9.58386 7.5597C8.49522 7.37649 7.43573 7.72362 6.67756 8.50467C6.08464 9.11215 5.76388 9.92212 5.75416 10.7514C5.08347 10.25 4.23783 10.0185 3.39218 10.115C2.30354 10.2403 1.38013 10.8671 0.874688 11.841C0.369245 12.8052 0.369245 13.9141 0.874688 14.8784C1.27321 15.6305 1.95361 16.1801 2.75066 16.4405C2.06054 16.9226 1.57453 17.6362 1.40929 18.4751C1.19545 19.5454 1.51621 20.6061 2.2841 21.3871C3.05198 22.1682 4.11147 22.5057 5.20012 22.3225C6.04576 22.1778 6.78449 21.715 7.28021 21.04C7.52321 21.8307 8.06753 22.5153 8.81598 22.9299C9.77826 23.4603 10.8864 23.4892 11.8778 23.0071C12.5096 22.6985 13.0053 22.2164 13.3261 21.6089C13.501 21.2811 13.6177 20.9243 13.6663 20.5386C13.7829 19.6997 13.5691 18.8608 13.0734 18.1762C13.9093 18.1858 14.7355 17.8869 15.3673 17.318C15.6492 17.0576 15.8825 16.7587 16.0574 16.4309C16.3782 15.833 16.4948 15.1484 16.3879 14.4541C16.2324 13.3742 15.5714 12.4774 14.58 12.0049C13.8121 11.6289 12.9373 11.5806 12.1402 11.8313C12.4124 11.0407 12.3735 10.1632 12.0236 9.40142C11.5668 8.40824 10.6822 7.73326 9.59358 7.55005L9.58386 7.5597Z" stroke="#313131" stroke-linecap="round" stroke-linejoin="round"></path><path d="M10.381 16.7877C9.74925 17.993 8.24264 18.4559 7.03735 17.8291C5.82234 17.2024 5.35578 15.7078 5.98758 14.5121C6.61938 13.3068 8.126 12.8439 9.33128 13.4707C10.5463 14.0975 11.0129 15.5921 10.381 16.7877V16.7877Z" stroke="#313131" stroke-linecap="round" stroke-linejoin="round"></path><path d="M43.1375 23.5859C42.4183 26.7776 40.3673 33.7974 35.2935 39.8819" stroke="#313131" stroke-linecap="round" stroke-linejoin="round"></path></g><defs><clipPath id="clip0_10313_106122"><rect width="50" height="58" fill="white"></rect></clipPath></defs></svg>