<svg width="27" height="52" viewBox="0 0 27 52" fill="none" xmlns="http://www.w3.org/2000/svg"><g clip-path="url(#clip0_10313_106148)"><path d="M22.9632 0.537109H3.54043C1.9323 0.537109 0.628662 1.80778 0.628662 3.37523C0.628662 4.94268 1.9323 6.21336 3.54043 6.21336H22.9632C24.5713 6.21336 25.875 4.94268 25.875 3.37523C25.875 1.80778 24.5713 0.537109 22.9632 0.537109Z" stroke="#313131" stroke-linecap="round" stroke-linejoin="round"></path><path d="M19.7537 51.4616H7.24637C3.56254 51.4616 0.551514 48.5267 0.551514 44.9361L3.14343 6.23438H23.2059L26.4375 44.9361C26.4375 48.5267 23.4265 51.4616 19.7427 51.4616H19.7537Z" stroke="#313131" stroke-linecap="round" stroke-linejoin="round"></path><path d="M13.6214 26.2308C13.6214 26.2308 13.7427 26.1771 13.8089 26.1663C13.8089 26.1233 13.8089 26.0803 13.8089 26.0481C13.8089 25.9621 13.8089 25.8223 13.7317 25.7793C13.7096 25.7686 13.6876 25.7578 13.6655 25.7578C13.6545 25.7578 13.6435 25.7578 13.6324 25.7578C13.5663 25.7793 13.5111 25.8438 13.4891 25.9083C13.4119 26.1018 13.4119 26.3383 13.4891 26.5103C13.5001 26.5426 13.5332 26.5856 13.5332 26.5856C13.5332 26.5856 13.5111 26.4673 13.5111 26.4136C13.5111 26.3276 13.5552 26.2631 13.6104 26.2201L13.6214 26.2308Z" fill="#FFFF00"></path><path d="M16.831 26.3168C16.7979 26.22 16.6545 25.9835 16.5994 25.8653C16.5332 25.7363 16.456 25.5643 16.3898 25.3493C16.3347 25.1773 16.2685 24.9837 16.2354 24.801C16.2133 24.7042 16.1802 24.371 16.1582 24.2957C16.081 23.9624 15.8825 23.6507 15.5736 23.4357C15.2869 23.2314 14.956 23.1454 14.6251 23.1562C14.5258 23.1562 14.2501 23.2099 14.1067 23.2314C13.9633 23.2529 13.7648 23.2744 13.5332 23.2744C13.3457 23.2744 13.1472 23.2744 12.9486 23.2529C12.8494 23.2422 12.5075 23.1777 12.4302 23.1669C12.0773 23.1347 11.7133 23.2314 11.4045 23.4464C11.1177 23.6507 10.9302 23.9302 10.842 24.2312C10.8089 24.328 10.7758 24.5967 10.7538 24.7257C10.7317 24.8655 10.6876 25.059 10.6104 25.2633C10.5552 25.4353 10.4891 25.618 10.4008 25.79C10.3567 25.876 10.1913 26.177 10.1582 26.2523C10.0258 26.5748 9.99274 26.9296 10.1141 27.2843C10.2244 27.6069 10.4339 27.8756 10.7097 28.0584C10.7979 28.1121 11.0516 28.2304 11.1729 28.2949C11.2942 28.3594 11.4707 28.4561 11.6582 28.5959C11.8126 28.7034 11.967 28.8217 12.1104 28.9507C12.1766 29.0152 12.4192 29.2624 12.4854 29.3162C12.7501 29.5419 13.103 29.6817 13.478 29.6817C13.831 29.6817 14.1508 29.5634 14.4155 29.3699C14.4927 29.3054 14.6913 29.1119 14.7905 29.0152C14.8898 28.9184 15.0442 28.7894 15.2317 28.6604C15.3861 28.5529 15.5516 28.4454 15.717 28.3486C15.8052 28.3056 16.1251 28.1551 16.1913 28.1229C16.4891 27.9401 16.7317 27.6606 16.853 27.3166C16.9633 26.9941 16.9523 26.6501 16.831 26.3491V26.3168Z" fill="#FFFF00"></path><path d="M13.7648 26.2842C13.7648 26.2842 13.7096 26.2842 13.6876 26.3057C13.6434 26.3487 13.6545 26.4347 13.6765 26.5314V26.5959L13.7096 26.5422C13.7427 26.4562 13.7537 26.4132 13.7758 26.3164V26.2949H13.7648V26.2842Z" fill="#FFFF00"></path></g><defs><clipPath id="clip0_10313_106148"><rect width="27" height="52" fill="white"></rect></clipPath></defs></svg>