<svg width="52" height="52" viewBox="0 0 52 52" fill="none" xmlns="http://www.w3.org/2000/svg"><path d="M47.1573 26.7507L46.2522 48.5241M46.2522 48.5241C46.157 49.9935 45.0296 51.2102 43.553 51.2102M43.553 51.2102H8.90751C7.44674 51.2102 6.30354 49.9935 6.20827 48.5241L4.85865 26.7507M3.49316 13.6836H48.5069C49.9994 13.6836 51.3014 14.9002 51.2061 16.3697L50.7616 23.3536C50.6663 24.8231 49.539 26.0397 48.0623 26.0397H3.95361C2.47697 26.0397 1.34965 24.8231 1.25438 23.3536L0.809798 16.3697C0.714531 14.9002 2.03239 13.6836 3.50903 13.6836H3.49316Z" stroke="#313131" stroke-miterlimit="22.93"></path><path d="M26.0081 13.6836V51.2102" stroke="#313131" stroke-linecap="round" stroke-linejoin="round"></path><path d="M26.5479 12.3403C14.8935 -14.5367 -8.2405 14.1732 26.5479 12.3403C53.6832 11.6293 36.5668 -7.41055 27.5165 9.21175C27.2306 9.71737 26.7543 11.7399 26.5479 12.3403V12.3403Z" fill="#FFFF00" stroke="#313131" stroke-linecap="round" stroke-linejoin="round"></path></svg>