<svg width="59" height="52" viewBox="0 0 59 52" fill="none" xmlns="http://www.w3.org/2000/svg"><g clip-path="url(#clip0_10313_106099)"><path d="M32.6796 0.62793H4.88396C2.53072 0.62793 0.623047 2.55023 0.623047 4.92151V46.2001C0.623047 48.5714 2.53072 50.4937 4.88396 50.4937H32.6796C35.0328 50.4937 36.9405 48.5714 36.9405 46.2001V4.92151C36.9405 2.55023 35.0328 0.62793 32.6796 0.62793Z" fill="white" stroke="#313131" stroke-miterlimit="10"></path><path d="M17.6543 17.9156C16.8196 17.313 15.7979 17.1749 14.8262 17.5264C14.0786 17.8026 13.4806 18.355 13.1318 19.058C12.7704 18.355 12.1724 17.8026 11.4124 17.539C10.4406 17.2 9.41902 17.3506 8.59674 17.9658C7.77446 18.581 7.31348 19.5225 7.35086 20.552C7.37578 21.3555 7.71216 22.0962 8.27281 22.6486C7.50036 22.7741 6.79021 23.1884 6.31678 23.8287C5.69384 24.6447 5.53187 25.6867 5.84334 26.6659C6.16727 27.6452 6.9148 28.3733 7.89905 28.6621C8.67149 28.8881 9.46886 28.8002 10.1666 28.4235C10.042 29.2019 10.2164 30.0054 10.6774 30.6582C11.2629 31.5119 12.1849 31.989 13.2065 31.989C13.8668 31.989 14.4773 31.7756 14.9881 31.3989C15.2747 31.1855 15.5114 30.9344 15.7107 30.6331C16.1592 29.9677 16.3212 29.1643 16.1842 28.3859C16.8819 28.7374 17.6917 28.8253 18.4517 28.5993C18.8005 28.4989 19.112 28.3357 19.3985 28.1222C19.9093 27.7456 20.2956 27.2058 20.4825 26.5781C20.7939 25.5988 20.607 24.5694 19.9841 23.7533C19.4982 23.1256 18.7881 22.7113 18.0156 22.5983C18.5638 22.0334 18.9002 21.2801 18.9126 20.4892C18.9376 19.4598 18.4766 18.5182 17.6418 17.9156H17.6543Z" fill="#FFFF00" stroke="#313131" stroke-linecap="round" stroke-linejoin="round"></path><path d="M14.527 26.0878C13.5054 26.8536 12.0477 26.6276 11.3001 25.5981C10.5402 24.5687 10.7644 23.0998 11.786 22.3466C12.8077 21.5808 14.2653 21.8067 15.0129 22.8362C15.7604 23.8656 15.5486 25.3345 14.527 26.0878Z" stroke="#313131" stroke-linecap="round" stroke-linejoin="round"></path><path d="M28.3439 33.5831C27.6836 33.106 26.8737 32.993 26.1138 33.2692C25.5157 33.4827 25.0423 33.9221 24.7682 34.487C24.4817 33.9346 24.0082 33.4952 23.4102 33.2944C22.6502 33.0307 21.8279 33.1437 21.1801 33.6333C20.5322 34.1229 20.1709 34.8636 20.1958 35.6797C20.2207 36.3199 20.4824 36.91 20.9309 37.3368C20.3204 37.4373 19.7598 37.7637 19.386 38.2659C18.9001 38.9187 18.7631 39.7347 19.0122 40.5131C19.2614 41.2915 19.8594 41.8564 20.6443 42.0824C21.2548 42.2581 21.8902 42.1828 22.4384 41.8941C22.3387 42.5092 22.4758 43.1495 22.8371 43.6642C23.2981 44.3296 24.0331 44.7188 24.843 44.7188C25.3662 44.7188 25.8521 44.5556 26.2508 44.2543C26.4751 44.0911 26.662 43.8902 26.8239 43.6517C27.1728 43.1244 27.3098 42.4841 27.1977 41.869C27.7459 42.1451 28.3937 42.2205 28.9918 42.0322C29.2658 41.9443 29.515 41.8187 29.7393 41.6555C30.1504 41.3542 30.4494 40.9274 30.5989 40.4378C30.8481 39.6594 30.6986 38.8434 30.2003 38.2031C29.814 37.7009 29.2534 37.3871 28.6429 37.2866C29.079 36.8472 29.3406 36.2446 29.3531 35.6169C29.3655 34.8009 29.0042 34.0602 28.3439 33.5831V33.5831Z" stroke="#313131" stroke-linecap="round" stroke-linejoin="round"></path><path d="M25.877 40.0614C25.0671 40.664 23.9209 40.4883 23.3229 39.6722C22.7249 38.8562 22.8993 37.7012 23.7091 37.0986C24.519 36.496 25.6652 36.6717 26.2632 37.4878C26.8612 38.3038 26.6868 39.4588 25.877 40.0614Z" stroke="#313131" stroke-linecap="round" stroke-linejoin="round"></path><path d="M1.43286 8.24805H36.33" stroke="#313131" stroke-linecap="round" stroke-linejoin="round"></path><path d="M54.8305 16.2693L37.684 12.7195C35.3789 12.2423 33.1263 13.7384 32.6527 16.0612L27.2294 42.6606C26.7558 44.9834 28.2406 47.2532 30.5456 47.7304L47.6921 51.2802C49.9972 51.7574 52.2498 50.2613 52.7234 47.9386L58.1467 21.3391C58.6203 19.0164 57.1356 16.7466 54.8305 16.2693Z" fill="white" stroke="#313131" stroke-miterlimit="10"></path><path d="M43.0081 26.4774C42.5098 25.9375 41.8121 25.6864 41.077 25.7869C40.5164 25.8748 40.0056 26.1761 39.6692 26.6155C39.5197 26.0756 39.1708 25.5986 38.6849 25.2973C38.0495 24.9206 37.3144 24.883 36.6417 25.1843C35.9689 25.4981 35.5204 26.0882 35.3958 26.8163C35.2961 27.3813 35.4332 27.9588 35.7446 28.4233C35.184 28.3982 34.6358 28.5865 34.1997 28.9631C33.6516 29.4527 33.3775 30.1558 33.4647 30.8839C33.5519 31.6246 33.9755 32.2398 34.6233 32.5788C35.1342 32.8424 35.7073 32.9052 36.2555 32.742C36.0561 33.2693 36.0686 33.8593 36.2928 34.3866C36.5794 35.0645 37.1649 35.5416 37.8751 35.6797C38.3361 35.7676 38.797 35.7173 39.2082 35.529C39.4324 35.4286 39.6442 35.2779 39.8311 35.1022C40.2423 34.7004 40.4665 34.1606 40.4914 33.5957C40.9275 33.9472 41.4882 34.1229 42.0613 34.0727C42.3229 34.0476 42.5596 33.9848 42.7963 33.8844C43.2075 33.6961 43.5563 33.3697 43.7806 32.9554C44.1419 32.3151 44.1543 31.5619 43.8304 30.8965C43.5812 30.3818 43.1327 29.9926 42.6094 29.8043C43.0704 29.4904 43.4193 29.0008 43.5439 28.4484C43.7058 27.7328 43.5189 27.0046 43.0206 26.4648L43.0081 26.4774Z" stroke="#313131" stroke-linecap="round" stroke-linejoin="round"></path><path d="M39.6316 31.7625C38.7969 32.1517 37.8127 31.7751 37.4389 30.9465C37.0527 30.1054 37.4264 29.1136 38.2487 28.7369C39.0835 28.3478 40.0677 28.7244 40.4415 29.553C40.8152 30.3816 40.4539 31.3859 39.6316 31.7625V31.7625Z" stroke="#313131" stroke-linecap="round" stroke-linejoin="round"></path><path d="M48.2656 39.0311C47.8669 38.6043 47.3187 38.4034 46.7456 38.4913C46.2971 38.5541 45.8984 38.7926 45.6243 39.1441C45.4997 38.7173 45.2256 38.3406 44.8394 38.1021C44.3411 37.8008 43.7555 37.7757 43.2198 38.0142C42.6965 38.2653 42.3352 38.7298 42.2355 39.3073C42.1608 39.7593 42.2604 40.2112 42.5096 40.5753C42.0611 40.5502 41.625 40.7009 41.2886 41.0022C40.8526 41.3913 40.6408 41.9437 40.7031 42.5212C40.7654 43.0987 41.1018 43.5883 41.625 43.8645C42.0237 44.078 42.4847 44.1156 42.9083 43.9901C42.7588 44.4044 42.7588 44.8689 42.9332 45.2957C43.1575 45.8356 43.6184 46.2122 44.1915 46.3252C44.5529 46.4005 44.9266 46.3503 45.2505 46.1996C45.425 46.1118 45.5994 45.9988 45.7364 45.8607C46.0604 45.5468 46.2473 45.1074 46.2597 44.668C46.6086 44.9442 47.0446 45.0823 47.4931 45.0447C47.6925 45.0321 47.8918 44.9693 48.0662 44.894C48.3902 44.7433 48.6643 44.4923 48.8511 44.1658C49.1377 43.6511 49.1502 43.0611 48.8885 42.5338C48.6892 42.1195 48.3403 41.8182 47.9167 41.6675C48.2905 41.4165 48.5521 41.0398 48.6518 40.6004C48.7764 40.0355 48.6269 39.458 48.2407 39.0311H48.2656Z" fill="#FFFF00" stroke="#313131" stroke-linecap="round" stroke-linejoin="round"></path><path d="M45.5996 43.2123C44.9393 43.5136 44.1668 43.2248 43.8554 42.5594C43.5564 41.8941 43.8429 41.1157 44.5032 40.8018C45.1635 40.5005 45.936 40.7893 46.2475 41.4547C46.5589 42.12 46.2599 42.8984 45.5996 43.2123Z" stroke="#313131" stroke-linecap="round" stroke-linejoin="round"></path><path d="M32.9912 17.3252L57.4977 22.3971" stroke="#313131" stroke-linecap="round" stroke-linejoin="round"></path></g><defs><clipPath id="clip0_10313_106099"><rect width="58.8679" height="52" fill="white"></rect></clipPath></defs></svg>